<svg xmlns="http://www.w3.org/2000/svg" xmlns:cc="http://web.resource.org/cc/" xmlns:ns1="http://sozi.baierouge.fr" xmlns:svg="http://www.w3.org/2000/svg" xmlns:xlink="http://www.w3.org/1999/xlink" id="svg1" x="0" y="0" version="1.0" viewBox="0 0 437.5 437.5"><path id="path623" d="m101.51 420.19l-19.5-380.31 326.88 1.021c-0.02 20.061 5.69 359.95 5.89 376.59-103.06-20.5-303.92 2.56-313.27 2.7z" style="fill-rule:evenodd;fill:#040565;fill-opacity:.3977"/><path id="path583" d="m54.372 394.65c-5.846-126.11-7.764-324.9-17.538-378.34 106.34 15.401 257.76-13.086 324.92-0.943-20.03 58.673 3.73 359.95 3.93 376.58-103.07-20.49-310.88 12.04-311.31 2.7z" style="fill-rule:evenodd;stroke:#9abf99;stroke-width:15.892;fill:#ffffeb"/><path id="path622" d="m75.978 367.16c-15.266-68.12-14.048-323.15-13.579-332.15 100.66 18.276 242.64-3.342 260.57-2.983l-0.51 24.588c-0.01 20.06-73.65 143.7-73.45 160.34-103.07-20.5-163.69 150.06-173.03 150.2z" style="fill-rule:evenodd;fill:#b2d385;fill-opacity:.4327"/><path id="path624" d="m151.14 424.43c12.48-10.3-48.33-29.49-45.5-43.91 2.9-25.46 30.69-69.41 43.98-82.73 29.53-12.93 177.67-198.45 176.11-225.01-0.73-17.841-102.57-53.209-126.74-47.679-36.25 8.291-95.36 221.41-84.51 259.92-3.44 20.25-30.117 76.65-47.405 81.78-17.492 6.56-63.888-10.36-63.251-1.06 1.6611 29.07 120.93 78.46 147.32 58.69z" style="fill-rule:evenodd"/><path id="path626" d="m161.8 274.19c14.03-9.16 96.31-110.41 103.35-119.7 6.07-9.77 16.73-12.77 7.9-23.97-5.8-5.93-34.64 14.76-58.63 8.85-23.98-5.9-42.47-28.48-54.09-33.21-8.25 12.18-6.47 11.53-8.81 17.6-4.65 10.3-32.53 117.31-29.5 134.93 2.72 12.08 28.55 22.04 39.78 15.5z" style="fill-rule:evenodd;fill:#ab0000"/><path id="path627" d="m279.12 142.08c8.48-11.76 26.61-39.73 32.29-61.574 6.28-17.114-92.7-56.245-111.94-43.163-14.05 8.535-25.46 31.148-35.78 62.997-3.97 9.98 38.4 40.98 53.65 44.94 13.25 3.55 41.87-9.71 53.02-13.04 5.64-2.36 0.58 10.74 8.76 9.84z" style="fill-rule:evenodd;stroke:#000;stroke-width:9.0126;fill:#fff"/><path id="path628" d="m147.96 222.25c14.53-40.82 27.9-46.88 39.93-61.49s-23.96-45.13-27.73-38.5c-3.78 6.64-20.56 79.78-24.25 88.45-3.7 8.68 3.24 18.3 12.05 11.54z" style="fill-rule:evenodd;fill:#fff;fill-opacity:.6224"/><metadata/></svg>