<svg xmlns="http://www.w3.org/2000/svg" xmlns:svg="http://www.w3.org/2000/svg" xmlns:xlink="http://www.w3.org/1999/xlink" id="svg8439" width="110.672" height="96.197" version="1.1"><defs id="defs8441"><linearGradient id="linearGradient9412"><stop id="stop9414" offset="0" style="stop-color:#fc909d;stop-opacity:1"/><stop id="stop9416" offset="1" style="stop-color:#e6384d;stop-opacity:1"/></linearGradient><linearGradient id="linearGradient9389"><stop id="stop9391" offset="0" style="stop-color:#fff;stop-opacity:1"/><stop id="stop9393" offset="1" style="stop-color:#000;stop-opacity:1"/></linearGradient><linearGradient id="linearGradient9367"><stop id="stop9369" offset="0" style="stop-color:#fff;stop-opacity:1"/><stop id="stop9385" offset=".132" style="stop-color:#fff;stop-opacity:.57647061"/><stop id="stop9379" offset=".263" style="stop-color:#fff;stop-opacity:.87692308"/><stop id="stop9377" offset=".397" style="stop-color:#fff;stop-opacity:.14615385"/><stop id="stop9375" offset=".485" style="stop-color:#fff;stop-opacity:.92307693"/><stop id="stop9381" offset=".631" style="stop-color:#fff;stop-opacity:.23846154"/><stop id="stop9383" offset=".809" style="stop-color:#fff;stop-opacity:.89999998"/><stop id="stop9371" offset="1" style="stop-color:#fff;stop-opacity:0"/></linearGradient><linearGradient id="linearGradient9322"><stop id="stop9324" offset="0" style="stop-color:#c4435d;stop-opacity:1"/><stop id="stop9326" offset="1" style="stop-color:#9d3a4e;stop-opacity:1"/></linearGradient><linearGradient id="linearGradient9314"><stop id="stop9316" offset="0" style="stop-color:#fff;stop-opacity:1"/><stop id="stop4257" offset=".047" style="stop-color:#fcc7cb;stop-opacity:1"/><stop id="stop9318" offset="1" style="stop-color:#f56d7d;stop-opacity:1"/></linearGradient><linearGradient id="linearGradient9293"><stop id="stop9295" offset="0" style="stop-color:#fe6f80;stop-opacity:1"/><stop id="stop9418" offset=".493" style="stop-color:#f23150;stop-opacity:1"/><stop id="stop9297" offset="1" style="stop-color:#dc1c3c;stop-opacity:1"/></linearGradient><filter id="filter9280" color-interpolation-filters="sRGB"><feGaussianBlur id="feGaussianBlur9282" stdDeviation="2.351"/></filter><linearGradient id="linearGradient9328" x1="754.247" x2="754.247" y1="513.52" y2="731.77" gradientTransform="translate(0,1)" gradientUnits="userSpaceOnUse" xlink:href="#linearGradient9322"/><linearGradient id="linearGradient9351" x1="780.36" x2="826.122" y1="513.52" y2="731.77" gradientTransform="translate(0,1)" gradientUnits="userSpaceOnUse" xlink:href="#linearGradient9293"/><linearGradient id="linearGradient9373" x1="782.04" x2="803.994" y1="629.486" y2="591.461" gradientUnits="userSpaceOnUse" spreadMethod="reflect" xlink:href="#linearGradient9367"/><linearGradient id="linearGradient9401" x1="893.869" x2="893.869" y1="514.451" y2="671.547" gradientUnits="userSpaceOnUse" xlink:href="#linearGradient9389"/><mask id="mask9397"><path id="path9399" d="M 826.10748,513.50597 700.12208,731.7702 c 9.25847,-8e-5 7.80015,-6.57273 12.18552,-6.57273 4.63672,0.0138 3.77357,3.28637 8.1431,3.28637 2.2464,0 4.04532,-2.22468 4.04252,-7.73593 0,-7.34724 1.82516,-11.08039 4.07156,-11.08039 2.24637,0 4.07155,3.27232 4.07155,6.54351 0,4.11809 1.82516,7.38697 4.07155,7.38697 2.24637,0 4.07156,-5.56758 4.07156,-12.44732 l -0.029,-7.88131 c 0,-9.51106 1.82517,-17.21685 4.07154,-17.21685 2.24637,0 4.07528,3.32956 4.07156,14.10496 0,8.56423 1.82517,17.10052 4.07155,17.10052 2.24637,0 4.07434,-9.93625 4.07155,-25.88342 0,-18.42407 1.79614,-30.33302 4.04241,-30.33302 2.24638,0 4.07445,11.91684 4.07157,23.67305 0,13.72891 1.82525,27.25037 4.07154,27.25037 2.24637,0 4.07445,-13.52442 4.07156,-32.28157 0,-20.14009 1.79612,-34.7827 4.04252,-34.7827 2.24638,0 4.07434,14.64336 4.07155,31.46729 0,17.65378 1.82517,32.97955 4.07156,32.97955 2.24626,0 4.07151,-15.31451 4.07151,-34.92803 0,-19.61373 1.79617,-35.21897 4.04245,-35.21897 2.24629,0 4.07156,15.6061 4.07156,34.89901 0,19.29281 1.82526,34.86998 4.07154,34.86998 2.24629,0 4.07156,-15.58693 4.07156,-34.20103 0,-18.21066 1.79613,-33.47401 4.0425,-33.47401 2.24628,0 4.07155,15.2546 4.07155,35.1607 0,19.17845 1.82515,33.85203 4.07155,33.85203 2.24633,9e-5 4.07435,-14.67453 4.07153,-31.26365 0,-15.58916 1.79615,-29.43149 4.04245,-29.43149 2.24637,0 4.07444,13.86887 4.07151,32.77593 0,17.69316 1.82529,30.53673 4.07159,30.53673 2.24636,-8e-5 4.07441,-12.84806 4.07151,-26.6687 0,-12.45075 1.79617,-24.22578 4.04253,-24.22578 2.2464,0 4.07443,11.76731 4.07144,28.47183 0,15.23586 1.82538,25.79622 4.07158,25.79622 2.24649,-8e-5 4.07164,-10.55393 4.07164,-21.31751 0,-9.24789 1.79605,-18.58368 4.04251,-18.58368 2.24627,0 4.07154,9.32806 4.07154,23.12055 0,12.27551 1.82508,20.38685 4.07155,20.38685 2.24629,0 4.07155,-7.13427 4.07155,-14.91934 0,-8.03247 1.82527,-14.19229 4.07155,-14.19229 2.24638,0 4.04243,6.89877 4.04243,17.53672 0,9.22647 1.82518,15.00657 4.07153,15.00657 2.24649,1.1e-4 4.07156,-4.78097 4.07156,-9.59712 0,-4.96701 1.82519,-9.82998 4.07155,-9.82998 2.2464,8e-5 4.04254,4.69926 4.04254,12.30194 0,6.39443 1.82515,10.1207 4.07155,10.1207 2.24618,0 4.07155,-2.59601 4.07155,-5.61287 0,-3.96768 1.82515,-5.78746 4.07155,-5.78746 2.24629,0 4.04249,2.72344 4.04249,7.76507 0,3.97383 1.82511,6.04915 4.07156,6.04915 4.24691,0 3.67352,-5.28863 8.14307,-5.32213 4.89126,0 3.45654,7.09615 8.11401,7.09615 3.3574,0 5.95645,-1.29391 8.14304,-1.30869 3.63402,0 3.88622,2.55925 12.18558,2.55925 L 826.10763,513.50597 z" style="fill:url(#linearGradient9401);fill-opacity:1;stroke:none;display:inline"/></mask><linearGradient id="linearGradient9410" x1="817.238" x2="696.697" y1="518.195" y2="725.077" gradientTransform="translate(0,1)" gradientUnits="userSpaceOnUse" xlink:href="#linearGradient9314"/><filter id="filter5193" color-interpolation-filters="sRGB"><feGaussianBlur id="feGaussianBlur5195" stdDeviation=".429"/></filter><linearGradient id="linearGradient4376" x1="986.59" x2="991.578" y1="500.817" y2="539.796" gradientTransform="translate(2.000024,1)" gradientUnits="userSpaceOnUse" xlink:href="#linearGradient9322"/><linearGradient id="linearGradient4406" x1="986.59" x2="991.578" y1="500.817" y2="539.796" gradientTransform="translate(2.000024,1)" gradientUnits="userSpaceOnUse" xlink:href="#linearGradient9322"/><linearGradient id="linearGradient4417" x1="984.367" x2="1005.747" y1="507.793" y2="539.598" gradientTransform="translate(2.000024,1)" gradientUnits="userSpaceOnUse" xlink:href="#linearGradient9293"/><linearGradient id="linearGradient4435" x1="634.133" x2="613.256" y1="229.353" y2="264.001" gradientTransform="translate(361.12209,272.7702)" gradientUnits="userSpaceOnUse" xlink:href="#linearGradient9314"/><linearGradient id="linearGradient4443" x1="635" x2="656.031" y1="247.391" y2="247.391" gradientTransform="translate(361.12209,272.7702)" gradientUnits="userSpaceOnUse" xlink:href="#linearGradient9412"/><linearGradient id="linearGradient4464" x1="971.122" x2="1017.122" y1="518.848" y2="518.848" gradientTransform="translate(2.000024,1)" gradientUnits="userSpaceOnUse" xlink:href="#linearGradient9412"/><linearGradient id="linearGradient4472" x1="738.988" x2="834.447" y1="520.945" y2="747.327" gradientTransform="translate(0,1)" gradientUnits="userSpaceOnUse" xlink:href="#linearGradient9412"/><linearGradient id="linearGradient4567" x1="623.551" x2="629" y1="320.264" y2="346.875" gradientTransform="translate(361.12209,271.7702)" gradientUnits="userSpaceOnUse" xlink:href="#linearGradient9322"/><linearGradient id="linearGradient4525" x1="625.451" x2="611" y1="319.25" y2="344.002" gradientTransform="translate(361.12209,273.80145)" gradientUnits="userSpaceOnUse" xlink:href="#linearGradient9314"/><linearGradient id="linearGradient4527" x1="623.551" x2="629" y1="320.264" y2="346.875" gradientTransform="translate(361.12209,273.80145)" gradientUnits="userSpaceOnUse" xlink:href="#linearGradient9412"/><linearGradient id="linearGradient4529" x1="978.122" x2="987.122" y1="599.02" y2="619.27" gradientTransform="translate(2.000024,0)" gradientUnits="userSpaceOnUse" xlink:href="#linearGradient9293"/><linearGradient id="linearGradient4586" x1="618.646" x2="622.393" y1="397" y2="414.676" gradientTransform="translate(361.12209,271.7702)" gradientUnits="userSpaceOnUse" xlink:href="#linearGradient9322"/><linearGradient id="linearGradient4594" x1="621.115" x2="611.747" y1="399.147" y2="415.72" gradientTransform="translate(361.12209,271.7702)" gradientUnits="userSpaceOnUse" xlink:href="#linearGradient9314"/><linearGradient id="linearGradient4602" x1="622" x2="631.813" y1="407.5" y2="407.5" gradientTransform="translate(361.12209,271.7702)" gradientUnits="userSpaceOnUse" xlink:href="#linearGradient9412"/><linearGradient id="linearGradient4610" x1="617.806" x2="626.592" y1="399.517" y2="415.029" gradientTransform="translate(361.12209,271.7702)" gradientUnits="userSpaceOnUse" xlink:href="#linearGradient9293"/><linearGradient id="linearGradient4682" x1="617.408" x2="621.607" y1="465.591" y2="478.641" gradientTransform="translate(361.12209,271.7702)" gradientUnits="userSpaceOnUse" xlink:href="#linearGradient9322"/><linearGradient id="linearGradient4705" x1="617.858" x2="612.463" y1="468.121" y2="476.466" gradientTransform="translate(361.12209,271.7702)" gradientUnits="userSpaceOnUse" xlink:href="#linearGradient9314"/><linearGradient id="linearGradient4713" x1="619" x2="625.844" y1="473.094" y2="473.094" gradientTransform="translate(361.12209,271.7702)" gradientUnits="userSpaceOnUse" xlink:href="#linearGradient9412"/><linearGradient id="linearGradient4721" x1="974.466" x2="979.138" y1="741.358" y2="750.843" gradientTransform="translate(2.000024,0)" gradientUnits="userSpaceOnUse" xlink:href="#linearGradient9293"/><clipPath id="clipPath3370-4"><path id="path3372-1" d="m 517.47193,500.02475 -6.83309,11.69808 0.11827,0 c 0.23385,-0.005 0.41368,-0.4418 0.53484,-0.4418 0.1884,0 0.23748,0.0822 0.3993,0.0822 0.18846,0 0.10465,-0.77714 0.328,-0.77714 0.20445,0 0.16353,0.51701 0.45137,0.51701 0.30678,0 0.14443,-1.83629 0.54039,-1.85503 0.36417,0 0.16401,1.62747 0.4888,1.62747 0.32582,0 0.0902,-3.04096 0.54131,-3.04096 0.32931,0 0.10101,2.94373 0.44903,2.94373 0.36497,0 0.18029,-3.69548 0.59053,-3.69548 0.53382,0 0.12696,3.66791 0.61346,3.66791 0.48127,0 0.0596,-3.83569 0.64163,-3.83569 0.60737,0 0.16385,3.86469 0.66689,3.86469 0.54239,0 0.15844,-3.30531 0.7143,-3.30531 0.53696,0 0.0815,3.41601 0.57746,3.41601 0.47964,0 0.12132,-2.4917 0.6098,-2.4917 0.49784,0 0.12552,2.63629 0.57481,2.63629 0.4264,0 0.3035,-1.41439 0.65504,-1.41439 0.37691,0 0.15031,1.61424 0.52638,1.61424 0.35071,0 0.25648,-0.86103 0.58015,-0.86103 0.32367,0 0.0795,1.06341 0.44936,1.06341 0.39523,0 0.15794,-0.38245 0.48539,-0.38245 0.33557,0 0.17631,0.56876 0.44362,0.56876 0.21651,0 0.35,-0.13643 0.58071,-0.13643 0.21559,0 0.47245,0.23574 0.92399,0.23574 l 0.18135,0 -6.83309,-11.69808 z" style="color:#000;fill:none;stroke:#200;stroke-width:.98935091;stroke-linecap:round;stroke-linejoin:round;stroke-miterlimit:4;stroke-opacity:1;stroke-dasharray:none;stroke-dashoffset:0;marker:none;visibility:visible;display:inline;overflow:visible"/></clipPath><linearGradient id="linearGradient2909-4"><stop id="stop2911-9" offset="0" style="stop-color:#ef2929;stop-opacity:1"/><stop id="stop2913-0" offset="1" style="stop-color:#a40000;stop-opacity:1"/></linearGradient><linearGradient id="linearGradient2948-9"><stop id="stop2950-7" offset="0" style="stop-color:#fff;stop-opacity:1"/><stop id="stop2952-4" offset="1" style="stop-color:#fff;stop-opacity:0"/></linearGradient><clipPath id="clipPath3358-5"><path id="path3360-3" d="m 520.47197,454.77761 -9.86643,16.97854 0.17078,0 c 0.33766,-0.007 0.59732,-0.64123 0.77226,-0.64123 0.27203,0 0.3429,0.11923 0.57655,0.11923 0.27213,0 0.15112,-1.12793 0.47361,-1.12793 0.29521,0 0.23613,0.75039 0.65174,0.75039 0.44297,0 0.20855,-2.66518 0.78029,-2.69238 0.52583,0 0.2368,2.3621 0.70578,2.3621 0.47046,0 0.13031,-4.41363 0.7816,-4.41363 0.47551,0 0.14586,4.27251 0.64838,4.27251 0.52698,0 0.26031,-5.36361 0.85267,-5.36361 0.77079,0 0.18332,5.32359 0.88579,5.32359 0.69491,0 0.0861,-5.5671 0.92646,-5.5671 0.87699,0 0.23659,5.60919 0.96293,5.60919 0.78317,0 0.22877,-4.79731 1.03139,-4.79731 0.77533,0 0.11776,4.95798 0.8338,4.95798 0.69257,0 0.17518,-3.61644 0.8805,-3.61644 0.71884,0 0.18125,3.8263 0.82999,3.8263 0.61568,0 0.43822,-2.05284 0.94583,-2.05284 0.54421,0 0.21703,2.3429 0.76004,2.3429 0.5064,0 0.37033,-1.2497 0.83769,-1.2497 0.46736,0 0.11477,1.54343 0.64884,1.54343 0.57068,0 0.22806,-0.55509 0.70087,-0.55509 0.48453,0 0.25458,0.8255 0.64054,0.8255 0.31262,0 0.50538,-0.19801 0.83851,-0.19801 0.31129,0 0.68218,0.34215 1.33415,0.34215 l 0.26187,0 -9.86643,-16.97854 z" style="color:#000;fill:none;stroke:#200;stroke-width:.98935014;stroke-linecap:round;stroke-linejoin:round;stroke-miterlimit:4;stroke-opacity:1;stroke-dasharray:none;stroke-dashoffset:0;marker:none;visibility:visible;display:inline;overflow:visible"/></clipPath><clipPath id="clipPath3326-4"><path id="path3328-6" d="m 525.06072,406.75023 -14.50688,25.05667 0.2511,0 c 0.49647,-0.0108 0.87825,-0.94633 1.13548,-0.94633 0.39997,0 0.50417,0.17596 0.84771,0.17596 0.40013,0 0.2222,-1.66458 0.69637,-1.66458 0.43404,0 0.34718,1.10741 0.95827,1.10741 0.6513,0 0.30663,-3.93324 1.14727,-3.97337 0.77315,0 0.34819,3.48594 1.03774,3.48594 0.69173,0 0.1916,-6.51356 1.14921,-6.51356 0.69915,0 0.21446,6.30529 0.95332,6.30529 0.77483,0 0.38274,-7.91551 1.25371,-7.91551 1.13331,0 0.26954,7.85646 1.30241,7.85646 1.02174,0 0.12653,-8.21584 1.36219,-8.21584 1.28946,0 0.34786,8.27795 1.41582,8.27795 1.15151,0 0.33637,-7.07979 1.5165,-7.07979 1.13997,0 0.17313,7.31691 1.22594,7.31691 1.01831,0 0.25758,-5.33708 1.29463,-5.33708 1.05694,0 0.2665,5.64679 1.22035,5.64679 0.90525,0 0.64434,-3.02956 1.39068,-3.02956 0.80018,0 0.31911,3.45763 1.11752,3.45763 0.74458,0 0.5445,-1.84429 1.23168,-1.84429 0.68716,0 0.16875,2.27776 0.954,2.27776 0.83909,0 0.33533,-0.81918 1.03051,-0.81918 0.71242,0 0.37431,1.21825 0.9418,1.21825 0.45966,0 0.74308,-0.29222 1.23288,-0.29222 0.4577,0 1.00303,0.50496 1.96165,0.50496 l 0.38503,0 -14.50689,-25.05667 z" style="color:#000;fill:none;stroke:#200;stroke-width:.98934937;stroke-linecap:round;stroke-linejoin:round;stroke-miterlimit:4;stroke-opacity:1;stroke-dasharray:none;stroke-dashoffset:0;marker:none;visibility:visible;display:inline;overflow:visible"/></clipPath><filter id="filter3580-4" color-interpolation-filters="sRGB"><feGaussianBlur id="feGaussianBlur3582-7" stdDeviation=".571"/></filter><filter id="filter3576-4" color-interpolation-filters="sRGB"><feGaussianBlur id="feGaussianBlur3578-5" stdDeviation=".734"/></filter><filter id="filter3564-1" color-interpolation-filters="sRGB"><feGaussianBlur id="feGaussianBlur3566-0" stdDeviation="1.081"/></filter><filter id="filter3552-0" color-interpolation-filters="sRGB"><feGaussianBlur id="feGaussianBlur3554-8" stdDeviation="1.47"/></filter><linearGradient id="linearGradient5635" x1="782.04" x2="803.994" y1="629.486" y2="591.461" gradientUnits="userSpaceOnUse" spreadMethod="reflect" xlink:href="#linearGradient9367"/><linearGradient id="linearGradient5639" x1="780.36" x2="826.122" y1="513.52" y2="731.77" gradientTransform="matrix(0.50793651,0,0,0.50793651,342.50449,539.07739)" gradientUnits="userSpaceOnUse" xlink:href="#linearGradient9293"/><linearGradient id="linearGradient5679" x1="796.717" x2="826.122" y1="522.221" y2="731.77" gradientTransform="matrix(0.50793651,0,0,0.50793651,342.50449,539.07739)" gradientUnits="userSpaceOnUse" xlink:href="#linearGradient9412"/><linearGradient id="linearGradient5681" x1="815.859" x2="695.959" y1="515.608" y2="727.942" gradientTransform="matrix(0.50793651,0,0,0.50793651,342.50449,539.07739)" gradientUnits="userSpaceOnUse" xlink:href="#linearGradient9314"/><linearGradient id="linearGradient5797" x1="777.576" x2="819.162" y1="520.829" y2="730.378" gradientTransform="matrix(0.50793651,0,0,0.50793651,342.50449,539.07739)" gradientUnits="userSpaceOnUse" xlink:href="#linearGradient9322"/><linearGradient id="linearGradient5802" x1="777.576" x2="819.162" y1="520.829" y2="730.378" gradientTransform="matrix(0.50793651,0,0,0.50793651,342.50449,539.07739)" gradientUnits="userSpaceOnUse" xlink:href="#linearGradient9322"/><linearGradient id="linearGradient3302"><stop id="stop3304" offset="0" style="stop-color:#ff5c4e;stop-opacity:1"/><stop id="stop3306" offset="1" style="stop-color:#b60e00;stop-opacity:1"/></linearGradient><linearGradient id="linearGradient3272"><stop id="stop3274" offset="0" style="stop-color:#fff;stop-opacity:1"/><stop id="stop3276" offset="1" style="stop-color:#fff;stop-opacity:0"/></linearGradient><linearGradient id="linearGradient3286"><stop id="stop3288" offset="0" style="stop-color:#ffdedb;stop-opacity:1"/><stop id="stop3290" offset="1" style="stop-color:#ffb0a7;stop-opacity:0"/></linearGradient><linearGradient id="linearGradient3280"><stop id="stop3282" offset="0" style="stop-color:#f54f2a;stop-opacity:1"/><stop id="stop3284" offset="1" style="stop-color:#f00000;stop-opacity:1"/></linearGradient><linearGradient id="linearGradient4992" x1="267.438" x2="267.438" y1="472.848" y2="367.69" gradientTransform="matrix(0.976517,0,0,0.976481,156.7804,-373.24438)" gradientUnits="userSpaceOnUse" xlink:href="#linearGradient3280"/><linearGradient id="linearGradient4994" x1="265.874" x2="265.874" y1="505.557" y2="613.282" gradientTransform="translate(152,-524.36218)" gradientUnits="userSpaceOnUse" xlink:href="#linearGradient3286"/><linearGradient id="linearGradient4996" x1="102.5" x2="110.354" y1="520.391" y2="557.78" gradientTransform="translate(312,-524.36218)" gradientUnits="userSpaceOnUse" xlink:href="#linearGradient3272"/><linearGradient id="linearGradient4998" x1="265.939" x2="265.939" y1="504.101" y2="613.345" gradientTransform="translate(152,-524.36218)" gradientUnits="userSpaceOnUse" xlink:href="#linearGradient3302"/><linearGradient id="linearGradient5084" x1="533.219" x2="533.219" y1="352.49" y2="391.89" gradientTransform="matrix(1.0248432,0,0,1.0248432,-291.66926,-133.15238)" gradientUnits="userSpaceOnUse" xlink:href="#linearGradient2909-4"/><linearGradient id="linearGradient5086" x1="510.472" x2="555.991" y1="370.719" y2="370.719" gradientTransform="matrix(1.0248432,0,0,1.0248432,-291.66926,-133.15238)" gradientUnits="userSpaceOnUse" xlink:href="#linearGradient2909-4"/><linearGradient id="linearGradient5088" x1="464.539" x2="474.864" y1="370.75" y2="376.899" gradientTransform="matrix(1.0358753,0,0,1.0358753,-235.14286,-137.48131)" gradientUnits="userSpaceOnUse" spreadMethod="pad" xlink:href="#linearGradient2948-9"/><linearGradient id="linearGradient5090" x1="533.219" x2="533.219" y1="352.49" y2="391.89" gradientTransform="matrix(0.637733,0,0,0.635955,185.0093,182.5827)" gradientUnits="userSpaceOnUse" xlink:href="#linearGradient2909-4"/><linearGradient id="linearGradient5092" x1="510.472" x2="555.991" y1="370.719" y2="370.719" gradientTransform="matrix(0.637733,0,0,0.635955,185.0093,182.5827)" gradientUnits="userSpaceOnUse" xlink:href="#linearGradient2909-4"/><linearGradient id="linearGradient5094" x1="464.539" x2="474.864" y1="370.75" y2="376.899" gradientTransform="matrix(0.644597,0,0,0.6428,220.1842,179.8964)" gradientUnits="userSpaceOnUse" spreadMethod="pad" xlink:href="#linearGradient2948-9"/><linearGradient id="linearGradient5096" x1="533.219" x2="533.219" y1="352.49" y2="391.89" gradientTransform="matrix(0.433735,0,0,0.430926,289.196,302.8803)" gradientUnits="userSpaceOnUse" xlink:href="#linearGradient2909-4"/><linearGradient id="linearGradient5098" x1="510.472" x2="555.991" y1="370.719" y2="370.719" gradientTransform="matrix(0.433735,0,0,0.430926,289.196,302.8803)" gradientUnits="userSpaceOnUse" xlink:href="#linearGradient2909-4"/><linearGradient id="linearGradient5100" x1="464.539" x2="474.864" y1="370.75" y2="376.899" gradientTransform="matrix(0.438404,0,0,0.435565,313.1192,301.0601)" gradientUnits="userSpaceOnUse" spreadMethod="pad" xlink:href="#linearGradient2948-9"/><linearGradient id="linearGradient5102" x1="533.219" x2="533.219" y1="352.49" y2="391.89" gradientTransform="matrix(0.300387,0,0,0.296905,357.2996,395.3686)" gradientUnits="userSpaceOnUse" xlink:href="#linearGradient2909-4"/><linearGradient id="linearGradient5104" x1="510.472" x2="555.991" y1="370.719" y2="370.719" gradientTransform="matrix(0.300387,0,0,0.296905,357.2996,395.3686)" gradientUnits="userSpaceOnUse" xlink:href="#linearGradient2909-4"/><linearGradient id="linearGradient5106" x1="464.539" x2="474.864" y1="370.75" y2="376.899" gradientTransform="matrix(0.303621,0,0,0.300101,373.8678,394.1145)" gradientUnits="userSpaceOnUse" spreadMethod="pad" xlink:href="#linearGradient2948-9"/></defs><metadata id="metadata8444"/><g id="layer2" transform="translate(-183.664,-49.44248)" style="display:none"><rect id="ardour-app-icon_tango_256px" width="256" height="256" x="339" y="224" style="fill:#e4e4e4;fill-opacity:1;stroke:none"/><rect id="ardour-app-icon_tango_048px" width="48" height="48" x="613" y="224" style="fill:#e4e4e4;fill-opacity:1;stroke:none"/><rect id="ardour-app-icon_tango_022px" width="22" height="22" x="613" y="396" style="fill:#e4e4e4;fill-opacity:1;stroke:none"/><rect id="ardour-app-icon_tango_016px" width="16" height="16" x="613" y="464" style="fill:#e4e4e4;fill-opacity:1;stroke:none"/><rect id="ardour-app-icon_tango_032px" width="32" height="32" x="613" y="318" style="fill:#e4e4e4;fill-opacity:1;stroke:none"/><rect id="ardour-app-icon_osx" width="128" height="128" x="339" y="519" style="fill:#e4e4e4;fill-opacity:1;stroke:none"/><rect id="ardour-app-icon_osx_mask" width="128" height="128" x="485" y="519" style="fill:#e4e4e4;fill-opacity:1;stroke:none"/></g><g id="layer4" transform="translate(-183.664,-49.44248)" style="display:none"><rect id="rect3566" width="48" height="48" x="675" y="224" style="fill:#e4e4e4;fill-opacity:1;stroke:none;display:inline"/><g id="g6751" transform="translate(-324.53698,-271.7702)"><path id="path3453" d="m 1260.7176,361.22437 -45.6733,79.11527 91.3482,3e-5 z" style="fill:#ff2121;fill-opacity:.5205479;stroke:none;display:inline"/><g id="g3455" transform="matrix(0.33733958,0,0,0.33733358,1034.2763,24.71293)" style="display:inline"><path id="path3457" d="m 535.87037,1232.0937 84.61624,-87.9482 84.61624,-87.9483" style="fill:none;stroke:#000;stroke-width:2.96439838px;stroke-linecap:butt;stroke-linejoin:miter;stroke-opacity:1"/><path id="path3459" d="M 603.55986,1114.8285 806.6649,1232.0941" style="fill:none;stroke:#000;stroke-width:2.96439838px;stroke-linecap:butt;stroke-linejoin:miter;stroke-opacity:1"/></g><g id="g3497" transform="matrix(0.29349342,0,0,-0.08895244,1084.1881,606.86694)" style="display:inline"><rect id="rect3499" width="10.047" height="81.802" x="445.87" y="-1872.094" transform="scale(1,-1)" style="fill:#2139ff;fill-opacity:.5205479;stroke:none"/><rect id="rect3502" width="10.047" height="81.802" x="465.964" y="-1872.094" transform="scale(1,-1)" style="fill:#2139ff;fill-opacity:.5205479;stroke:none"/><rect id="rect3504" width="10.047" height="81.802" x="486.057" y="-1872.094" transform="scale(1,-1)" style="fill:#2139ff;fill-opacity:.5205479;stroke:none"/><rect id="rect3506" width="10.047" height="81.802" x="506.15" y="-1872.094" transform="scale(1,-1)" style="fill:#2139ff;fill-opacity:.5205479;stroke:none"/><rect id="rect3508" width="10.047" height="81.802" x="526.243" y="-1872.094" transform="scale(1,-1)" style="fill:#2139ff;fill-opacity:.5205479;stroke:none"/><rect id="rect3510" width="10.047" height="81.802" x="546.337" y="-1872.094" transform="scale(1,-1)" style="fill:#2139ff;fill-opacity:.5205479;stroke:none"/><rect id="rect3512" width="10.047" height="81.802" x="566.43" y="-1872.094" transform="scale(1,-1)" style="fill:#2139ff;fill-opacity:.5205479;stroke:none"/><rect id="rect3514" width="10.047" height="81.802" x="586.523" y="-1872.094" transform="scale(1,-1)" style="fill:#2139ff;fill-opacity:.5205479;stroke:none"/><rect id="rect3516" width="10.047" height="81.802" x="606.616" y="-1872.094" transform="scale(1,-1)" style="fill:#2139ff;fill-opacity:.5205479;stroke:none"/><rect id="rect3518" width="10.047" height="81.802" x="626.71" y="-1872.094" transform="scale(1,-1)" style="fill:#2139ff;fill-opacity:.5205479;stroke:none"/><rect id="rect3520" width="10.047" height="81.802" x="646.803" y="-1872.094" transform="scale(1,-1)" style="fill:#2139ff;fill-opacity:.5205479;stroke:none"/><rect id="rect3522" width="10.047" height="81.802" x="666.896" y="-1872.094" transform="scale(1,-1)" style="fill:#2139ff;fill-opacity:.5205479;stroke:none"/><rect id="rect3524" width="10.047" height="81.802" x="686.784" y="-1872.094" transform="scale(1,-1)" style="fill:#2139ff;fill-opacity:.5205479;stroke:none"/><rect id="rect3526" width="10.047" height="81.802" x="706.877" y="-1872.094" transform="scale(1,-1)" style="fill:#2139ff;fill-opacity:.5205479;stroke:none"/><rect id="rect3528" width="10.047" height="81.802" x="726.97" y="-1872.094" transform="scale(1,-1)" style="fill:#2139ff;fill-opacity:.5205479;stroke:none"/><rect id="rect3530" width="10.047" height="81.802" x="747.063" y="-1872.094" transform="scale(1,-1)" style="fill:#2139ff;fill-opacity:.5205479;stroke:none"/></g><path id="path4456" d="m 940.25,4018.2373 a 4.125,42.375 0 1 1 -8.25,0 4.125,42.375 0 1 1 8.25,0 z" transform="matrix(0.35741642,0,0,0.07118067,890.77426,149.32586)" style="fill:#51cd65;fill-opacity:.71689501;stroke:none;display:inline"/><path id="path4458" d="m 940.25,4018.2373 a 4.125,42.375 0 1 1 -8.25,0 4.125,42.375 0 1 1 8.25,0 z" transform="matrix(0.35741642,0,0,0.14731012,896.66747,-161.92038)" style="fill:#51cd65;fill-opacity:.71689501;stroke:none;display:inline"/><path id="path4460" d="m 940.25,4018.2373 a 4.125,42.375 0 1 1 -8.25,0 4.125,42.375 0 1 1 8.25,0 z" transform="matrix(0.35741642,0,0,0.2278683,902.56068,-491.27292)" style="fill:#51cd65;fill-opacity:.71689501;stroke:none;display:inline"/><path id="path4462" d="m 940.25,4018.2373 a 4.125,42.375 0 1 1 -8.25,0 4.125,42.375 0 1 1 8.25,0 z" transform="matrix(0.35741642,0,0,0.27983723,908.4539,-703.7417)" style="fill:#51cd65;fill-opacity:.71689501;stroke:none;display:inline"/><path id="path4464" d="m 940.25,4018.2373 a 4.125,42.375 0 1 1 -8.25,0 4.125,42.375 0 1 1 8.25,0 z" transform="matrix(0.35741642,0,0,0.29824058,914.34712,-778.98163)" style="fill:#51cd65;fill-opacity:.71689501;stroke:none;display:inline"/><path id="path4466" d="m 940.25,4018.2373 a 4.125,42.375 0 1 1 -8.25,0 4.125,42.375 0 1 1 8.25,0 z" transform="matrix(0.35741642,0,0,0.29141763,920.24036,-751.08677)" style="fill:#51cd65;fill-opacity:.71689501;stroke:none;display:inline"/><path id="path4468" d="m 940.25,4018.2373 a 4.125,42.375 0 1 1 -8.25,0 4.125,42.375 0 1 1 8.25,0 z" transform="matrix(0.35741642,0,0,0.02116867,884.88106,353.79406)" style="fill:#51cd65;fill-opacity:.71689501;stroke:none;display:inline"/><path id="path4470" d="m 940.25,4018.2373 a 4.125,42.375 0 1 1 -8.25,0 4.125,42.375 0 1 1 8.25,0 z" transform="matrix(0.35741642,0,0,0.22463596,932.02681,-478.0579)" style="fill:#51cd65;fill-opacity:.71689501;stroke:none;display:inline"/><path id="path4472" d="m 940.25,4018.2373 a 4.125,42.375 0 1 1 -8.25,0 4.125,42.375 0 1 1 8.25,0 z" transform="matrix(0.35741642,0,0,0.17841394,937.92005,-289.08461)" style="fill:#51cd65;fill-opacity:.71689501;stroke:none;display:inline"/><path id="path4474" d="m 940.25,4018.2373 a 4.125,42.375 0 1 1 -8.25,0 4.125,42.375 0 1 1 8.25,0 z" transform="matrix(0.35741642,0,0,0.13200038,943.81329,-99.328271)" style="fill:#51cd65;fill-opacity:.71689501;stroke:none;display:inline"/><path id="path4476" d="m 940.25,4018.2373 a 4.125,42.375 0 1 1 -8.25,0 4.125,42.375 0 1 1 8.25,0 z" transform="matrix(0.35741642,0,0,0.08970776,949.70651,73.58005)" style="fill:#51cd65;fill-opacity:.71689501;stroke:none;display:inline"/><path id="path4478" d="m 940.25,4018.2373 a 4.125,42.375 0 1 1 -8.25,0 4.125,42.375 0 1 1 8.25,0 z" transform="matrix(0.35741642,0,0,0.05420002,955.59974,218.74929)" style="fill:#51cd65;fill-opacity:.71689501;stroke:none;display:inline"/><path id="path4480" d="m 940.25,4018.2373 a 4.125,42.375 0 1 1 -8.25,0 4.125,42.375 0 1 1 8.25,0 z" transform="matrix(0.35741642,0,0,0.02686885,961.49297,330.48949)" style="fill:#51cd65;fill-opacity:.71689501;stroke:none;display:inline"/><path id="path4482" d="m 940.25,4018.2373 a 4.125,42.375 0 1 1 -8.25,0 4.125,42.375 0 1 1 8.25,0 z" transform="matrix(0.35741642,0,0,0.00825132,967.3862,406.60507)" style="fill:#51cd65;fill-opacity:.71689501;stroke:none;display:inline"/><path id="path4484" d="m 940.25,4018.2373 a 4.125,42.375 0 1 1 -8.25,0 4.125,42.375 0 1 1 8.25,0 z" transform="matrix(0.35741642,0,0,0.26465723,926.13359,-641.68008)" style="fill:#51cd65;fill-opacity:.71689501;stroke:none;display:inline"/><path id="path4486" d="m 940.25,4018.2373 a 4.125,42.375 0 1 1 -8.25,0 4.125,42.375 0 1 1 8.25,0 z" transform="matrix(0.35741642,0,0,0.00571076,881.93446,416.99194)" style="fill:#5195cd;fill-opacity:.71689507;stroke:none;display:inline"/><path id="path4488" d="m 940.25,4018.2373 a 4.125,42.375 0 1 1 -8.25,0 4.125,42.375 0 1 1 8.25,0 z" transform="matrix(0.35741642,0,0,0.10655593,893.72087,4.6983548)" style="fill:#5195cd;fill-opacity:.71689507;stroke:none;display:inline"/><path id="path4490" d="m 940.25,4018.2373 a 4.125,42.375 0 1 1 -8.25,0 4.125,42.375 0 1 1 8.25,0 z" transform="matrix(0.35741642,0,0,0.18950674,899.61408,-334.43621)" style="fill:#5195cd;fill-opacity:.71689507;stroke:none;display:inline"/><path id="path4492" d="m 940.25,4018.2373 a 4.125,42.375 0 1 1 -8.25,0 4.125,42.375 0 1 1 8.25,0 z" transform="matrix(0.35741642,0,0,0.25841829,905.5073,-616.173)" style="fill:#5195cd;fill-opacity:.71689507;stroke:none;display:inline"/><path id="path4494" d="m 940.25,4018.2373 a 4.125,42.375 0 1 1 -8.25,0 4.125,42.375 0 1 1 8.25,0 z" transform="matrix(0.35741642,0,0,0.29269198,911.40051,-756.29684)" style="fill:#5195cd;fill-opacity:.71689507;stroke:none;display:inline"/><path id="path4496" d="m 940.25,4018.2373 a 4.125,42.375 0 1 1 -8.25,0 4.125,42.375 0 1 1 8.25,0 z" transform="matrix(0.35741642,0,0,0.29766629,917.29374,-776.63371)" style="fill:#5195cd;fill-opacity:.71689507;stroke:none;display:inline"/><path id="path4498" d="m 940.25,4018.2373 a 4.125,42.375 0 1 1 -8.25,0 4.125,42.375 0 1 1 8.25,0 z" transform="matrix(0.35741642,0,0,0.28014287,923.18697,-704.99125)" style="fill:#5195cd;fill-opacity:.71689507;stroke:none;display:inline"/><path id="path4500" d="m 940.25,4018.2373 a 4.125,42.375 0 1 1 -8.25,0 4.125,42.375 0 1 1 8.25,0 z" transform="matrix(0.35741642,0,0,0.04274316,887.82767,265.58924)" style="fill:#5195cd;fill-opacity:.71689507;stroke:none;display:inline"/><path id="path4502" d="m 940.25,4018.2373 a 4.125,42.375 0 1 1 -8.25,0 4.125,42.375 0 1 1 8.25,0 z" transform="matrix(0.35741642,0,0,0.20188797,934.97343,-385.05544)" style="fill:#5195cd;fill-opacity:.71689507;stroke:none;display:inline"/><path id="path4504" d="m 940.25,4018.2373 a 4.125,42.375 0 1 1 -8.25,0 4.125,42.375 0 1 1 8.25,0 z" transform="matrix(0.35741642,0,0,0.15492003,940.86666,-193.03258)" style="fill:#5195cd;fill-opacity:.71689507;stroke:none;display:inline"/><path id="path4507" d="m 940.25,4018.2373 a 4.125,42.375 0 1 1 -8.25,0 4.125,42.375 0 1 1 8.25,0 z" transform="matrix(0.35741642,0,0,0.11013762,946.75988,-9.9449918)" style="fill:#5195cd;fill-opacity:.71689507;stroke:none;display:inline"/><path id="path4509" d="m 940.25,4018.2373 a 4.125,42.375 0 1 1 -8.25,0 4.125,42.375 0 1 1 8.25,0 z" transform="matrix(0.35741642,0,0,0.0709939,952.65312,150.08944)" style="fill:#5195cd;fill-opacity:.71689507;stroke:none;display:inline"/><path id="path4511" d="m 940.25,4018.2373 a 4.125,42.375 0 1 1 -8.25,0 4.125,42.375 0 1 1 8.25,0 z" transform="matrix(0.35741642,0,0,0.03946312,958.54636,278.99937)" style="fill:#5195cd;fill-opacity:.71689507;stroke:none;display:inline"/><path id="path4513" d="m 940.25,4018.2373 a 4.125,42.375 0 1 1 -8.25,0 4.125,42.375 0 1 1 8.25,0 z" transform="matrix(0.35741642,0,0,0.01646103,964.43958,373.04066)" style="fill:#5195cd;fill-opacity:.71689507;stroke:none;display:inline"/><path id="path4515" d="m 940.25,4018.2373 a 4.125,42.375 0 1 1 -8.25,0 4.125,42.375 0 1 1 8.25,0 z" transform="matrix(0.35741642,0,0,0.00295832,970.33282,428.32713)" style="fill:#5195cd;fill-opacity:.71689507;stroke:none;display:inline"/><path id="path4517" d="m 940.25,4018.2373 a 4.125,42.375 0 1 1 -8.25,0 4.125,42.375 0 1 1 8.25,0 z" transform="matrix(0.35741642,0,0,0.2458517,929.0802,-564.79584)" style="fill:#5195cd;fill-opacity:.71689507;stroke:none;display:inline"/><path id="path4554" d="m 1215.0481,440.33962 c 16.7294,-6.50973 19.182,-33.61081 35.0864,-33.61081 15.9041,0 30.4576,29.79772 56.256,33.60746" style="fill:none;stroke:#ffdd1b;stroke-width:1.00000012px;stroke-linecap:butt;stroke-linejoin:miter;stroke-opacity:.56164383;display:inline"/><path id="path4628" d="m 1215.0481,440.33962 c 16.7294,-1.6066 19.182,-8.29501 35.0864,-8.29501 15.9041,0 30.4576,7.35395 56.256,8.29416" style="fill:none;stroke:#ffdd1b;stroke-width:.99999994px;stroke-linecap:butt;stroke-linejoin:miter;stroke-opacity:.56164383;display:inline"/></g><path id="path3568" d="M 698.99773,227.15752 676.00003,267 l 45.9999,0 -23.0025,-39.84248 z" style="fill:#e02047;fill-opacity:1;stroke:none;display:inline"/><g id="g3570" transform="matrix(0.15422196,0,0,-0.06112323,606.23701,390.42843)" style="display:inline"><rect id="rect3572" width="10.047" height="81.802" x="445.87" y="-1872.094" transform="scale(1,-1)" style="fill:#2139ff;fill-opacity:.5205479;stroke:none"/><rect id="rect3574" width="10.047" height="81.802" x="465.964" y="-1872.094" transform="scale(1,-1)" style="fill:#2139ff;fill-opacity:.5205479;stroke:none"/><rect id="rect3576" width="10.047" height="81.802" x="486.057" y="-1872.094" transform="scale(1,-1)" style="fill:#2139ff;fill-opacity:.5205479;stroke:none"/><rect id="rect3578" width="10.047" height="81.802" x="506.15" y="-1872.094" transform="scale(1,-1)" style="fill:#2139ff;fill-opacity:.5205479;stroke:none"/><rect id="rect3580" width="10.047" height="81.802" x="526.243" y="-1872.094" transform="scale(1,-1)" style="fill:#2139ff;fill-opacity:.5205479;stroke:none"/><rect id="rect3582" width="10.047" height="81.802" x="546.337" y="-1872.094" transform="scale(1,-1)" style="fill:#2139ff;fill-opacity:.5205479;stroke:none"/><rect id="rect3584" width="10.047" height="81.802" x="566.43" y="-1872.094" transform="scale(1,-1)" style="fill:#2139ff;fill-opacity:.5205479;stroke:none"/><rect id="rect3586" width="10.047" height="81.802" x="586.523" y="-1872.094" transform="scale(1,-1)" style="fill:#2139ff;fill-opacity:.5205479;stroke:none"/><rect id="rect3588" width="10.047" height="81.802" x="606.616" y="-1872.094" transform="scale(1,-1)" style="fill:#2139ff;fill-opacity:.5205479;stroke:none"/><rect id="rect3590" width="10.047" height="81.802" x="626.71" y="-1872.094" transform="scale(1,-1)" style="fill:#2139ff;fill-opacity:.5205479;stroke:none"/><rect id="rect3592" width="10.047" height="81.802" x="646.803" y="-1872.094" transform="scale(1,-1)" style="fill:#2139ff;fill-opacity:.5205479;stroke:none"/><rect id="rect3594" width="10.047" height="81.802" x="666.896" y="-1872.094" transform="scale(1,-1)" style="fill:#2139ff;fill-opacity:.5205479;stroke:none"/><rect id="rect3596" width="10.047" height="81.802" x="686.784" y="-1872.094" transform="scale(1,-1)" style="fill:#2139ff;fill-opacity:.5205479;stroke:none"/><rect id="rect3598" width="10.047" height="81.802" x="706.877" y="-1872.094" transform="scale(1,-1)" style="fill:#2139ff;fill-opacity:.5205479;stroke:none"/><rect id="rect3600" width="10.047" height="81.802" x="726.97" y="-1872.094" transform="scale(1,-1)" style="fill:#2139ff;fill-opacity:.5205479;stroke:none"/><rect id="rect3602" width="10.047" height="81.802" x="747.063" y="-1872.094" transform="scale(1,-1)" style="fill:#2139ff;fill-opacity:.5205479;stroke:none"/></g><path id="path3604" d="m 676.00003,267 c 8.2417,-3.18777 9.95,-16.45899 17.7853,-16.45899 7.8352,0 15.505,14.59338 28.2147,16.45899" style="fill:none;stroke:#ffdd1b;stroke-width:1px;stroke-linecap:butt;stroke-linejoin:miter;stroke-opacity:.56164383;display:inline"/><path id="path3606" d="m 676.00003,267 c 8.4248,-0.80245 9.66,-4.24306 17.6694,-4.24306 8.0093,0 15.3384,3.77345 28.3306,4.24306" style="fill:none;stroke:#ffdd1b;stroke-width:.99999988px;stroke-linecap:butt;stroke-linejoin:miter;stroke-opacity:.56164383;display:inline"/><path id="path3608" d="m 688.00003,272 0,4.00001 2,0 0,-4.00001 z m 4,0 0,4.00001 2,0 0,-4.00001 z m 4,0 0,4.00001 2,0 0,-4.00001 z m 4,0 0,4.00001 2,0 0,-4.00001 z m -16,0 0,4.00001 2,0 0,-4.00001 z m 20,0 0,4.00001 2,0 0,-4.00001 z m 4,0 0,4.00001 2,0 0,-4.00001 z m -28,0 0,4.00001 2,0 0,-4.00001 z m 32,0 0,4.00001 2,0 0,-4.00001 z m 4,0 0,4.00001 2,0 0,-4.00001 z m -40,0 0,4.00001 2,0 0,-4.00001 z m 44,0 0,4.00001 2,0 0,-4.00001 z" style="fill:#21ff76;fill-opacity:.5205479;stroke:none"/><path id="path3610" d="m 940.25,4018.2373 a 4.125,42.375 0 1 1 -8.25,0 4.125,42.375 0 1 1 8.25,0 z" transform="matrix(0.24242454,0,0,0.13844079,464.06035,-299.25313)" style="fill:#51cd65;fill-opacity:.71689501;stroke:none;display:inline"/><path id="path3612" d="m 940.25,4018.2373 a 4.125,42.375 0 1 1 -8.25,0 4.125,42.375 0 1 1 8.25,0 z" transform="matrix(-0.24242991,0,0,0.14362106,919.94473,-320.42253)" style="fill:#5195cd;fill-opacity:.71689507;stroke:none;display:inline"/><path id="path3614" d="m 940.25,4018.2373 a 4.125,42.375 0 1 1 -8.25,0 4.125,42.375 0 1 1 8.25,0 z" transform="matrix(-0.24242991,0,0,0.1262963,915.94463,-249.60044)" style="fill:#5195cd;fill-opacity:.71689507;stroke:none;display:inline"/><path id="path3616" d="m 940.25,4018.2373 a 4.125,42.375 0 1 1 -8.25,0 4.125,42.375 0 1 1 8.25,0 z" transform="matrix(0.24242454,0,0,0.10680066,460.06035,-169.86448)" style="fill:#51cd65;fill-opacity:.71689501;stroke:none;display:inline"/><path id="path3618" d="m 940.25,4018.2373 a 4.125,42.375 0 1 1 -8.25,0 4.125,42.375 0 1 1 8.25,0 z" transform="matrix(-0.24242991,0,0,0.08176837,911.94473,-67.45596)" style="fill:#5195cd;fill-opacity:.71689507;stroke:none;display:inline"/><path id="path3620" d="m 940.25,4018.2373 a 4.125,42.375 0 1 1 -8.25,0 4.125,42.375 0 1 1 8.25,0 z" transform="matrix(0.24242454,0,0,0.0556619,456.06035,39.35278)" style="fill:#51cd65;fill-opacity:.71689501;stroke:none;display:inline"/><path id="path3622" d="m 940.25,4018.2373 a 4.125,42.375 0 1 1 -8.25,0 4.125,42.375 0 1 1 8.25,0 z" transform="matrix(-0.24242991,0,0,0.03295421,907.94463,132.24105)" style="fill:#5195cd;fill-opacity:.71689507;stroke:none;display:inline"/><path id="path3624" d="m 940.25,4018.2373 a 4.125,42.375 0 1 1 -8.25,0 4.125,42.375 0 1 1 8.25,0 z" transform="matrix(0.24242454,0,0,0.01571627,452.06025,202.73913)" style="fill:#51cd65;fill-opacity:.71689501;stroke:none;display:inline"/><path id="path3626" d="m 940.25,4018.2373 a 4.125,42.375 0 1 1 -8.25,0 4.125,42.375 0 1 1 8.25,0 z" transform="matrix(-0.24242991,0,0,0.00400362,903.94463,250.6314)" style="fill:#5195cd;fill-opacity:.71689507;stroke:none;display:inline"/><path id="path3628" d="m 940.25,4018.2373 a 4.125,42.375 0 1 1 -8.25,0 4.125,42.375 0 1 1 8.25,0 z" transform="matrix(-0.24242991,0,0,0.13769855,923.94473,-296.18226)" style="fill:#5195cd;fill-opacity:.71689507;stroke:none;display:inline"/><path id="path3630" d="m 940.25,4018.2373 a 4.125,42.375 0 1 1 -8.25,0 4.125,42.375 0 1 1 8.25,0 z" transform="matrix(0.24242454,0,0,0.14320273,468.06035,-318.70006)" style="fill:#51cd65;fill-opacity:.71689501;stroke:none;display:inline"/><path id="path3632" d="m 940.25,4018.2373 a 4.125,42.375 0 1 1 -8.25,0 4.125,42.375 0 1 1 8.25,0 z" transform="matrix(0.24242454,0,0,0.12820382,472.06035,-257.34404)" style="fill:#51cd65;fill-opacity:.71689501;stroke:none;display:inline"/><path id="path3634" d="m 940.25,4018.2373 a 4.125,42.375 0 1 1 -8.25,0 4.125,42.375 0 1 1 8.25,0 z" transform="matrix(-0.24242991,0,0,0.11582757,927.94473,-206.71926)" style="fill:#5195cd;fill-opacity:.71689507;stroke:none;display:inline"/><path id="path3636" d="m 940.25,4018.2373 a 4.125,42.375 0 1 1 -8.25,0 4.125,42.375 0 1 1 8.25,0 z" transform="matrix(0.24242454,0,0,0.10163802,476.06035,-148.67711)" style="fill:#51cd65;fill-opacity:.71689501;stroke:none;display:inline"/><path id="path3640" d="m 940.25,4018.2373 a 4.125,42.375 0 1 1 -8.25,0 4.125,42.375 0 1 1 8.25,0 z" transform="matrix(0.24242454,0,0,0.0714824,480.06038,-25.32942)" style="fill:#51cd65;fill-opacity:.71689501;stroke:none;display:inline"/><path id="path3642" d="m 940.25,4018.2373 a 4.125,42.375 0 1 1 -8.25,0 4.125,42.375 0 1 1 8.25,0 z" transform="matrix(-0.24242991,0,0,0.05696361,935.94473,34.05425)" style="fill:#5195cd;fill-opacity:.71689507;stroke:none;display:inline"/><path id="path3644" d="m 940.25,4018.2373 a 4.125,42.375 0 1 1 -8.25,0 4.125,42.375 0 1 1 8.25,0 z" transform="matrix(0.24242454,0,0,0.04352198,484.06038,89.02922)" style="fill:#51cd65;fill-opacity:.71689501;stroke:none;display:inline"/><path id="path3646" d="m 940.25,4018.2373 a 4.125,42.375 0 1 1 -8.25,0 4.125,42.375 0 1 1 8.25,0 z" transform="matrix(-0.24242991,0,0,0.03151447,939.94473,138.13578)" style="fill:#5195cd;fill-opacity:.71689507;stroke:none;display:inline"/><path id="path3648" d="m 940.25,4018.2373 a 4.125,42.375 0 1 1 -8.25,0 4.125,42.375 0 1 1 8.25,0 z" transform="matrix(0.24242454,0,0,0.02118668,488.06038,180.37016)" style="fill:#51cd65;fill-opacity:.71689501;stroke:none;display:inline"/><path id="path3650" d="m 940.25,4018.2373 a 4.125,42.375 0 1 1 -8.25,0 4.125,42.375 0 1 1 8.25,0 z" transform="matrix(-0.24242991,0,0,0.012698,943.94473,215.0815)" style="fill:#5195cd;fill-opacity:.71689507;stroke:none;display:inline"/><path id="path3652" d="m 940.25,4018.2373 a 4.125,42.375 0 1 1 -8.25,0 4.125,42.375 0 1 1 8.25,0 z" transform="matrix(0.24242454,0,0,0.00613946,492.0604,241.89852)" style="fill:#51cd65;fill-opacity:.71689501;stroke:none;display:inline"/><path id="path3654" d="m 940.25,4018.2373 a 4.125,42.375 0 1 1 -8.25,0 4.125,42.375 0 1 1 8.25,0 z" transform="matrix(-0.24242991,0,0,0.00155198,947.94473,260.65493)" style="fill:#5195cd;fill-opacity:.71689507;stroke:none;display:inline"/><g id="g3745" transform="matrix(0.10281472,0,0,-0.04049549,569.15796,429.26251)" style="display:inline"><rect id="rect3747" width="10.047" height="81.802" x="445.87" y="-1872.094" transform="scale(1,-1)" style="fill:#2139ff;fill-opacity:.5205479;stroke:none"/><rect id="rect3749" width="10.047" height="81.802" x="465.964" y="-1872.094" transform="scale(1,-1)" style="fill:#2139ff;fill-opacity:.5205479;stroke:none"/><rect id="rect3751" width="10.047" height="81.802" x="486.057" y="-1872.094" transform="scale(1,-1)" style="fill:#2139ff;fill-opacity:.5205479;stroke:none"/><rect id="rect3753" width="10.047" height="81.802" x="506.15" y="-1872.094" transform="scale(1,-1)" style="fill:#2139ff;fill-opacity:.5205479;stroke:none"/><rect id="rect3755" width="10.047" height="81.802" x="526.243" y="-1872.094" transform="scale(1,-1)" style="fill:#2139ff;fill-opacity:.5205479;stroke:none"/><rect id="rect3757" width="10.047" height="81.802" x="546.337" y="-1872.094" transform="scale(1,-1)" style="fill:#2139ff;fill-opacity:.5205479;stroke:none"/><rect id="rect3759" width="10.047" height="81.802" x="566.43" y="-1872.094" transform="scale(1,-1)" style="fill:#2139ff;fill-opacity:.5205479;stroke:none"/><rect id="rect3761" width="10.047" height="81.802" x="586.523" y="-1872.094" transform="scale(1,-1)" style="fill:#2139ff;fill-opacity:.5205479;stroke:none"/><rect id="rect3763" width="10.047" height="81.802" x="606.616" y="-1872.094" transform="scale(1,-1)" style="fill:#2139ff;fill-opacity:.5205479;stroke:none"/><rect id="rect3765" width="10.047" height="81.802" x="626.71" y="-1872.094" transform="scale(1,-1)" style="fill:#2139ff;fill-opacity:.5205479;stroke:none"/><rect id="rect3767" width="10.047" height="81.802" x="646.803" y="-1872.094" transform="scale(1,-1)" style="fill:#2139ff;fill-opacity:.5205479;stroke:none"/><rect id="rect3769" width="10.047" height="81.802" x="666.896" y="-1872.094" transform="scale(1,-1)" style="fill:#2139ff;fill-opacity:.5205479;stroke:none"/><rect id="rect3771" width="10.047" height="81.802" x="686.784" y="-1872.094" transform="scale(1,-1)" style="fill:#2139ff;fill-opacity:.5205479;stroke:none"/><rect id="rect3773" width="10.047" height="81.802" x="706.877" y="-1872.094" transform="scale(1,-1)" style="fill:#2139ff;fill-opacity:.5205479;stroke:none"/><rect id="rect3775" width="10.047" height="81.802" x="726.97" y="-1872.094" transform="scale(1,-1)" style="fill:#2139ff;fill-opacity:.5205479;stroke:none"/><rect id="rect3777" width="10.047" height="81.802" x="747.063" y="-1872.094" transform="scale(1,-1)" style="fill:#2139ff;fill-opacity:.5205479;stroke:none"/></g><path id="path4537" d="m 940.25,4018.2373 a 4.125,42.375 0 1 1 -8.25,0 4.125,42.375 0 1 1 8.25,0 z" transform="matrix(-0.24242991,0,0,0.08658828,931.94473,-87.11714)" style="fill:#5195cd;fill-opacity:.71689507;stroke:none;display:inline"/></g><g id="layer3" transform="translate(-183.664,-49.44248)" style="display:inline"><g id="g5004" transform="translate(-16.000034,0)"><g id="g1915" transform="matrix(0.3373212,0,0,0.3373212,187.08622,36.7718)" style="fill:#212a30;fill-opacity:1;display:inline"><path id="path1917" d="m 176.58984,287.95266 c -4.4103,-2e-5 -12.12188,0 -12.12188,0 l 0,26.08961 12.12188,0 c 4.3917,2e-5 7.39131,-1.40425 9.64258,-3.63738 2.13424,-2.11706 3.89541,-5.27258 3.89543,-9.41799 -2e-5,-4.12678 -1.81,-7.26836 -3.99251,-9.42473 -2.21436,-2.18781 -5.1352,-3.60949 -9.5455,-3.60951 z m -22.86855,33.89131 0,-41.63052 22.51894,0 c 7.48435,0 12.62796,-0.0795 18.87867,6.00177 3.60173,3.5053 6.09058,9.07662 6.09058,14.77168 0,5.69505 -2.04116,11.0094 -5.86648,14.82943 -5.70324,5.69535 -11.55274,6.02764 -19.10277,6.02764 l -22.51894,0 z" style="font-size:9.055686px;font-style:normal;font-weight:400;line-height:125%;fill:#212a30;fill-opacity:1;stroke:none;font-family:Bitstream Vera Sans"/><path id="path1919" d="m 126.97432,297.67254 c 2.59561,0 3.64258,-0.35574 4.61029,-1.19227 0.98624,-0.83649 1.69817,-2.0131 1.69815,-3.67544 -2e-5,-1.66232 -0.86816,-2.92319 -1.8544,-3.74115 -1.18646,-0.91163 -2.20237,-1.07059 -4.45404,-1.07064 l -14.3345,0 0,9.6795 14.3345,0 m 1.62252,7.76085 -15.95702,0 0,16.41058 -10.7467,0 0,-41.63052 28.47566,0 c 6.48475,0 13.53566,4.07906 13.53566,12.48815 0.0809,5.0346 -2.32365,8.20329 -5.0209,10.34803 l 10.848,18.79434 -11.70938,0 -9.42532,-16.41058 z" style="font-size:9.055686px;font-style:normal;font-weight:400;line-height:125%;fill:#212a30;fill-opacity:1;stroke:none;font-family:Bitstream Vera Sans"/><path id="path1921" d="m 81.25583,313.1958 -27.31361,0 -4.9224,8.64817 -11.73246,0 23.88134,-41.63052 12.81227,0 23.89079,41.63052 -11.59805,0 -5.01788,-8.64817 z m -13.66703,-23.70915 -9.20858,15.98847 18.46056,0 -9.25198,-15.98847 z" style="font-size:9.055686px;font-style:normal;font-weight:400;line-height:125%;fill:#212a30;fill-opacity:1;stroke:none;font-family:Bitstream Vera Sans"/><path id="path1923" d="m 226.49427,279.56802 c -11.98471,0.59407 -21.75,9.91765 -21.75,21.44777 0,11.53013 9.79018,20.79698 21.75,21.51562 4.22101,0.25363 7.99759,0.23803 12.125,0 11.96508,-0.69004 21.75,-9.98549 21.75,-21.51562 0,-11.53012 -9.77016,-20.82438 -21.75,-21.44777 -4.03884,-0.2283 -8.08575,-0.18207 -12.125,0 z m 9.71875,7.57276 c 7.23503,0.40144 13.125,6.45 13.125,13.87501 0,7.42501 -5.8989,13.39939 -13.125,13.84375 -2.49266,0.15329 -4.79454,0.16333 -7.34375,0 -7.22294,-0.46277 -13.125,-6.41874 -13.125,-13.84375 0,-7.42501 5.88705,-13.49244 13.125,-13.87501 2.44658,-0.14198 4.89703,-0.10411 7.34375,0 z" style="fill:#212a30;fill-opacity:1;stroke:none"/><path id="path1925" d="m 264.45322,280.20719 0,25.23047 c 0,6.93393 4.16429,10.29387 5.90625,11.75 4.29314,3.58868 11.07624,5.58352 17.86206,5.55335 6.78575,-0.0302 14.25702,-2.48029 17.85669,-5.55335 3.75213,-3.20322 5.87496,-6.49272 5.875,-11.75 l 0,-25.23047 -10.6875,0 0,24.09437 c 0,4.46995 -1.68688,6.59318 -3.71875,7.93945 -2.26002,1.49744 -5.47235,2.69882 -9.33671,2.67834 -3.86435,-0.0205 -7.48003,-1.39915 -9.3151,-2.67834 -2.26851,-1.58137 -3.75379,-3.44012 -3.75379,-7.93945 l 0,-24.09437 -10.68815,0 z" style="font-size:9.055686px;font-style:normal;font-weight:400;line-height:125%;fill:#212a30;fill-opacity:1;stroke:none;font-family:Bitstream Vera Sans"/><path id="path1927" d="m 342.62077,297.67254 c 2.59561,0 3.64258,-0.35574 4.61029,-1.19227 0.98624,-0.83649 1.69817,-2.0131 1.69815,-3.67544 -2e-5,-1.66232 -0.86816,-2.92319 -1.8544,-3.74115 -1.18646,-0.91163 -2.20237,-1.07059 -4.45404,-1.07064 l -14.3345,0 0,9.6795 14.3345,0 m 1.62252,7.76085 -15.95702,0 0,16.41058 -10.7467,0 0,-41.63052 28.47566,0 c 6.48475,0 13.53566,4.07906 13.53566,12.48815 0.0809,5.0346 -2.32365,8.20329 -5.0209,10.34803 l 10.848,18.79434 -11.70938,0 -9.42532,-16.41058 z" style="font-size:9.055686px;font-style:normal;font-weight:400;line-height:125%;fill:#212a30;fill-opacity:1;stroke:none;display:inline;font-family:Bitstream Vera Sans"/></g><path id="path1929" d="m 254.97805,49.44248 -45.67542,79.11236 0.79061,0 c 1.56315,-0.0342 2.18389,-2.59315 2.99374,-2.59315 0.53441,0 1.3091,0.40057 1.8447,0.40057 1.01436,0 1.30975,-5.36851 2.16519,-5.35061 0.85548,0.0178 0.69418,4.58683 2.30433,4.64434 1.66966,0.0596 0.56996,-10.53075 2.20314,-10.53075 1.42063,0 0.70743,9.03544 2.64945,9.09508 1.88243,0.0596 0.42495,-15.65069 2.30431,-15.80295 2.18891,-0.17735 0.80225,14.62113 3.06659,14.62113 1.9767,0 0.67093,-20.77962 2.42028,-20.77962 1.74728,0 1.21894,20.07661 3.00154,19.90794 1.71626,0 0.0587,-24.21638 2.0378,-24.21638 2.53432,0 1.23709,24.03664 2.97305,24.02995 1.95629,-0.008 0.36178,-26.38815 2.63916,-26.38815 2.36118,0 0.75166,26.64522 2.72057,26.57458 2.07415,-0.0745 -0.10269,-24.96445 2.18206,-24.96445 2.20038,0 0.70314,25.31232 2.62476,25.31232 2.03017,0 -0.14512,-24.98474 2.51183,-24.81058 2.57296,0.16866 0.8854,25.53855 2.72491,25.53855 1.75522,0 0.7072,-22.1642 2.80028,-22.04483 2.45368,0.13993 1.02266,22.73063 2.71694,22.73063 1.57037,0 0.85771,-18.03346 2.93737,-18.03346 2.19818,0 0.54393,18.71472 2.56634,18.63038 2.02065,-0.0843 1.11889,-14.27021 3.08561,-14.27021 1.88242,0 0.32463,15.4713 2.45219,15.4713 2.21141,0 1.09286,-10.8319 3.04436,-10.8319 2.01083,0 0.74463,11.83477 2.28353,11.83477 1.49673,0 1.05962,-7.4562 2.53716,-7.4562 1.47885,0 0.78596,7.89026 2.03115,7.89026 1.28728,0 0.76073,-4.55384 2.12478,-4.55384 1.36582,0 0.87821,4.91766 1.92578,4.97548 0.93015,0.0514 0.81098,-3.10076 1.66818,-3.10076 0.87212,0 0.50473,3.50418 1.70532,3.50165 1.1584,-0.003 0.80233,-1.93992 1.62727,-1.93992 0.81008,0 0.83511,2.27749 1.79202,2.27749 0.68204,-0.0131 1.40553,-1.04115 2.27237,-1.04115 1.14027,0 1.48965,1.27249 4.40991,1.27249 l 1.21223,0 -45.67539,-79.11236 z" style="fill:#e4214e;fill-opacity:1;fill-rule:evenodd;stroke:none;display:inline"/></g></g></svg>