<svg xmlns="http://www.w3.org/2000/svg" xmlns:osb="http://www.openswatchbook.org/uri/2009/osb" version="1.1" viewBox="0 0 94 94"><defs><filter id="filter5403" color-interpolation-filters="sRGB"><feGaussianBlur stdDeviation=".476"/></filter></defs><metadata/><g><path fill="none" stroke="#4d3c53" stroke-dasharray="none" stroke-linejoin="round" stroke-miterlimit="4" stroke-width="5" d="m149.66,94.695c0,23.359-19.166,42.296-42.809,42.296s-42.809-18.936-42.809-42.296c0-23.359,19.166-42.296,42.809-42.296s42.809,18.936,42.809,42.296z" filter="url(#filter5403)" opacity=".714" transform="translate(-0.63713375,-868.50871) translate(-58.563359,821.87598)"/><path fill="#FFF" stroke="#73228e" stroke-dasharray="none" stroke-linejoin="round" stroke-miterlimit="4" stroke-width="5" d="m149.66,94.695c0,23.359-19.166,42.296-42.809,42.296s-42.809-18.936-42.809-42.296c0-23.359,19.166-42.296,42.809-42.296s42.809,18.936,42.809,42.296z" transform="translate(-0.63713375,-868.50871) translate(-60.905835,819.19103)"/><text x="17.587" y="1034.755" fill="#000" font-family="Arial" font-size="107.513" font-stretch="normal" font-style="normal" font-variant="normal" font-weight="bold" line-height="125%" transform="translate(-0.63713375,-868.50871) scale(1.0952781,0.91301013)" xml:space="preserve" style="writing-mode:lr-tb;letter-spacing:0;text-anchor:start;word-spacing:0;text-align:start"><tspan style="writing-mode:lr-tb;text-anchor:start;text-align:start" x="17.587" y="1034.755" font-family="Times New Roman" font-size="107.513" font-stretch="normal" font-style="normal" font-variant="normal" font-weight="normal" line-height="125%">λ</tspan></text></g></svg>